<svg width="21.821198" height="20.000000" viewBox="0 0 21.8212 20" fill="none" xmlns="http://www.w3.org/2000/svg" xmlns:xlink="http://www.w3.org/1999/xlink">
	<desc>
			Created with Pixso.
	</desc>
	<defs/>
	<path id="Shape" d="M20.9246 3.64139L3.86313 3.64139L3.60953 0.816055C3.56802 0.354019 3.18082 0 2.71695 0L0.896149 0C0.401215 0 0 0.40123 0 0.896164C0 1.3911 0.401215 1.79231 0.896149 1.79231L1.89764 1.79231C1.99942 2.9263 2.03336 3.30431 2.03336 3.30431L2.00711 3.01192C1.9906 2.82787 1.96872 2.58408 1.94888 2.36287C2.04895 3.47768 2.31653 6.45906 2.92834 13.2755C3.0015 14.1031 3.44867 15.0012 4.21902 15.6114C2.83011 17.3851 4.09915 20 6.35846 20C8.23364 20 9.55624 18.1298 8.91321 16.3584L13.818 16.3584C13.1758 18.1275 14.4955 20 16.3727 20C17.8708 20 19.0897 18.7812 19.0897 17.2831C19.0897 15.7849 17.8708 14.5661 16.3727 14.5661L6.36453 14.5661C5.68378 14.5661 5.09058 14.1554 4.83453 13.5571L19.1563 12.7153C19.5473 12.6924 19.8781 12.4181 19.9731 12.0381L21.7941 4.75488C21.9352 4.19014 21.5077 3.64139 20.9246 3.64139ZM1.89767 1.79233L1.94446 2.31352L1.94446 2.31352L1.89767 1.79233ZM4.59329 11.7758L18.394 10.9648L19.7769 5.43367L4.02402 5.43367L4.59329 11.7758ZM5.43387 17.2831C5.43387 17.7929 5.84866 18.2077 6.35846 18.2077C6.86829 18.2077 7.28308 17.7929 7.28308 17.2831C7.28308 16.7732 6.86829 16.3584 6.35846 16.3584C5.84866 16.3584 5.43387 16.7732 5.43387 17.2831ZM16.3727 18.2077C15.8629 18.2077 15.4481 17.7929 15.4481 17.2831C15.4481 16.7732 15.8629 16.3584 16.3727 16.3584C16.8825 16.3584 17.2973 16.7732 17.2973 17.2831C17.2973 17.7929 16.8825 18.2077 16.3727 18.2077Z" clip-rule="evenodd" fill="#69707D" fill-opacity="1.000000" fill-rule="evenodd"/>
</svg>
